<svg width="251" height="141" viewBox="0 0 251 141" fill="none" xmlns="http://www.w3.org/2000/svg">
<g clip-path="url(#clip0_48_1375)">
<path d="M47.7083 85.5073C48.5486 84.3722 49.3688 83.2488 50.2064 82.1425C52.2281 79.4669 54.8622 77.3898 57.8355 75.6365C58.2182 75.4079 58.5178 75.0679 58.8569 74.7805C59.8071 73.9766 60.7306 73.8823 61.8448 74.486C64.3999 75.8814 65.8312 77.9113 66.3256 80.5944C67.3245 86.0505 66.5158 91.3359 64.615 96.5237C63.1607 100.473 61.6454 104.402 60.2169 108.357C59.4965 110.351 59.0609 112.413 59.0365 114.523C59.0287 115.338 59.1799 116.162 59.3591 116.965C59.5709 117.899 60.3084 118.287 61.5765 117.972C63.3409 117.529 64.6784 116.469 65.6731 115.152C66.6973 113.806 67.5956 112.361 68.4139 110.898C70.204 107.711 71.4119 104.315 72.5142 100.888C72.6236 100.545 72.8276 100.223 72.9865 99.8973C73.0895 99.9085 73.1878 99.9202 73.2847 99.9294C73.3017 100.166 73.3844 100.42 73.3187 100.637C72.7196 102.87 72.1411 105.113 71.4505 107.32C70.6625 109.859 69.8975 112.406 68.5177 114.753C67.324 116.77 65.9644 118.682 64.15 120.298C62.9149 121.394 61.5214 122.306 59.8245 122.605C58.6731 122.813 57.4435 122.728 56.3505 122.222C53.93 121.109 52.1831 119.38 50.8033 117.273C48.9346 114.402 48.8726 111.281 49.1795 108.112C49.5898 103.857 50.8593 99.7642 52.1785 95.6856C53.844 90.5345 55.5004 85.3834 57.1541 80.2319C57.2423 79.957 57.2708 79.6679 57.3429 79.2858C55.5781 79.9086 54.1418 80.8151 53.2003 82.1321C51.2287 84.8958 49.4051 87.7404 47.5429 90.57C46.4691 92.2065 45.6108 93.9235 44.9556 95.7457C43.8432 98.8306 42.337 101.754 40.1849 104.375C39.9795 104.63 39.8784 104.971 39.6294 105.179C39.3362 105.436 38.8883 105.796 38.5956 105.744C38.1935 105.662 37.8296 105.264 37.5494 104.935C37.2401 104.579 37.0766 104.129 36.7899 103.756C36.153 102.939 36.0983 101.98 35.9711 101.051C35.4266 96.9709 36.522 93.0646 37.5696 89.1629C38.2036 86.7822 38.9958 84.4369 39.7162 82.0766C39.776 81.8826 39.8233 81.6853 39.8789 81.4901C39.8182 81.4467 39.7576 81.4062 39.6937 81.3637C38.6268 82.4153 37.4405 83.3882 36.5224 84.5303C34.6767 86.8368 32.9625 89.2246 31.2279 91.6029C30.9284 92.0134 30.7248 92.5127 30.6196 92.9974C29.9134 96.1378 28.8102 99.1635 27.4359 102.11C26.738 103.604 25.7341 104.923 24.4374 106.046C23.025 107.272 21.9986 107.406 20.3945 106.399C19.4283 105.797 18.5521 105.052 17.6961 104.312C16.863 103.592 16.6912 102.62 16.7293 101.62C16.8304 98.7442 17.4011 95.9493 18.4753 93.2461C19.8519 89.7866 21.2689 86.3404 22.6528 82.8871C23.1243 81.7057 23.547 80.5077 23.9931 79.3146C23.9297 79.2608 23.8695 79.2024 23.807 79.1469C23.2451 79.4472 22.6253 79.6838 22.1341 80.0596C20.5324 81.2786 19.2679 82.7153 19.0115 84.6851C18.9688 85.0184 19.0929 85.383 18.9688 85.6788C18.7859 86.1343 18.4689 86.5644 17.8137 86.5319C17.2242 86.5031 16.4137 85.834 16.4293 85.2833C16.4518 84.5908 16.4541 83.8466 16.7385 83.2317C18.0512 80.3754 20.0867 78.0352 22.9846 76.349C23.8442 75.8484 24.6419 75.259 25.508 74.7613C26.6038 74.1385 27.7534 74.123 28.744 74.9106C29.6809 75.6548 30.5879 76.4612 31.3617 77.3443C32.3968 78.5145 32.4662 79.9825 32.4125 81.3925C32.3399 83.2905 32.1019 85.1824 31.93 87.153C32.2696 86.7346 32.5986 86.3517 32.8917 85.952C34.5812 83.6802 36.5652 81.6494 38.7394 79.7543C39.8242 78.8052 40.8323 77.7803 41.8969 76.807C42.7588 76.0178 43.7109 75.9923 44.6974 76.6731C46.8164 78.1361 47.604 80.1702 47.6982 82.4875C47.7381 83.4733 47.7083 84.4678 47.7083 85.5073Z" fill="url(#paint0_linear_48_1375)"/>
<path d="M79.6512 100.018C79.6126 100.468 79.5345 100.91 79.5505 101.35C79.585 102.404 79.6751 103.458 79.721 104.511C79.7633 105.585 79.1531 106.392 78.2309 106.95C77.9346 107.13 77.3175 107.071 76.9481 106.916C75.8922 106.473 75.2637 105.607 74.7279 104.706C73.2259 102.17 71.8507 99.5606 71.309 96.7122C70.8789 94.4729 70.646 92.1873 70.5899 89.9142C70.4484 84.255 70.9557 78.6325 72.2918 73.0902C72.4058 72.6096 72.2261 72.4669 71.7666 72.3459C68.3036 71.4353 65.5468 69.6302 63.5439 66.9037C63.0817 66.2796 62.7321 65.5759 62.3962 64.8867C62.1164 64.3098 62.347 63.6252 62.9462 63.3374C63.1667 63.2293 63.6225 63.2694 63.8137 63.4104C64.223 63.7095 64.5975 64.0828 64.8612 64.4933C66.5461 67.073 68.9037 68.8752 72.0727 69.7825C72.9282 70.0282 72.9456 70.0199 73.1556 69.2615C74.6094 63.825 76.4735 58.5296 79.2542 53.5108C81.5152 49.4314 84.4724 45.8788 88.2571 42.8815C90.1358 41.3889 92.3275 40.5851 94.7903 40.9163C96.8069 41.1854 98.4114 42.2328 99.5647 43.8206C100.74 45.422 100.851 47.2262 100.848 49.0492C100.843 51.7883 100.418 54.4798 99.5555 57.1117C98.9173 59.0602 97.7442 60.7614 96.5455 62.4522C94.2169 65.7423 90.9151 68.0429 87.232 69.9339C86.4523 70.3319 85.9551 70.7728 85.7189 71.5917C84.5298 75.7208 83.269 79.8381 82.0386 83.9547C81.9733 84.1774 81.9334 84.4031 81.9779 84.6847C82.1043 84.5608 82.2302 84.4365 82.3552 84.3101C83.9141 82.7482 85.4322 81.1451 87.0514 79.635C87.9226 78.8261 88.927 78.1403 90.2025 77.8362C90.8894 77.6722 91.4086 77.7686 91.9503 78.1515C93.8107 79.4681 94.1599 81.2314 93.7863 83.2104C93.275 85.9045 91.84 88.165 89.8023 90.1295C89.1898 90.726 88.5006 91.2591 87.8688 91.7981C89.1282 93.3274 90.3523 94.8359 91.6126 96.3264C94.1098 99.2869 95.7501 102.687 97.6523 105.951C98.4265 107.274 99.2393 108.589 100.142 109.841C100.887 110.886 102.125 111.12 103.396 110.63C105.694 109.748 106.986 108.016 107.94 106.06C108.959 103.976 109.382 101.743 109.764 99.5101C109.787 99.3812 109.76 99.2335 109.83 99.138C109.945 98.982 110.118 98.8652 110.267 98.7313C110.33 98.8977 110.47 99.0725 110.445 99.2256C110.027 101.52 109.611 103.805 109.154 106.093C108.805 107.823 108.217 109.486 107.215 111.014C106.175 112.605 104.976 114.099 103.337 115.208C100.531 117.095 97.5361 117.347 94.38 115.868C90.213 113.912 87.0675 110.987 84.5202 107.461C82.8348 105.126 81.0774 102.84 79.9535 100.22C79.9241 100.149 79.8621 100.086 79.8161 100.019H79.6512V100.018ZM86.9614 67.8014C87.3156 67.6283 87.5251 67.5503 87.7034 67.4393C88.6628 66.8407 89.641 66.265 90.5572 65.6234C93.8112 63.3228 95.9385 60.3397 96.9581 56.7237C97.7226 54.0297 97.9795 51.3152 97.1851 48.5845C97.0697 48.197 96.8855 47.829 96.7343 47.4507C96.6479 47.4373 96.5547 47.4252 96.4614 47.4119C96.0359 47.9471 95.5199 48.446 95.207 49.0275C94.2477 50.8372 93.3733 52.6831 92.4585 54.5057C90.6027 58.1992 88.9435 61.962 87.6359 65.8487C87.4369 66.4469 87.2223 67.0451 86.9614 67.8014ZM82.0446 87.5472C83.2612 88.3202 84.3139 88.9689 85.3403 89.6518C85.6482 89.8637 85.8674 89.8604 86.1228 89.6322C86.6691 89.1429 87.2609 88.6861 87.759 88.1638C89.6166 86.1823 90.7382 83.9492 90.5462 81.2777C90.468 80.2115 90.0109 80.0175 88.893 80.5565C88.8084 80.594 88.7266 80.6416 88.6577 80.6937C87.3896 81.7742 86.0309 82.7837 84.885 83.963C83.8094 85.0781 82.9589 86.3742 82.0446 87.5472Z" fill="url(#paint1_linear_48_1375)"/>
<path fill-rule="evenodd" clip-rule="evenodd" d="M71.1877 69.478C68.2053 69.0212 63.6368 67.0584 61.282 65.2855C61.219 63.4296 63.7562 62.0709 64.4712 59.5291C68.1694 62.2728 67.1448 67.3888 71.1877 69.478Z" fill="url(#paint2_linear_48_1375)"/>
<path fill-rule="evenodd" clip-rule="evenodd" d="M42.7997 59.147C46.7512 60.5232 51.9202 60.4361 51.9202 60.4361C51.9202 60.4361 54.5195 63.0279 56.7447 64.1383C51.2384 66.975 45.143 62.0179 42.7997 59.147Z" fill="url(#paint3_linear_48_1375)"/>
<path fill-rule="evenodd" clip-rule="evenodd" d="M60.0184 64.6077C58.4103 63.634 56.4548 62.2991 54.9642 60.8011C54.5622 57.881 60.363 56.8902 62.3567 53.6343C66.1156 59.4119 60.5928 61.2704 60.0184 64.6077Z" fill="url(#paint4_linear_48_1375)"/>
<path fill-rule="evenodd" clip-rule="evenodd" d="M53.4135 59.6017C51.8628 58.1417 50.5859 56.5506 49.4988 54.3564C49.355 51.415 58.238 49.1903 61.3366 45.7149C65.5895 54.2308 54.026 55.3258 53.4135 59.6017Z" fill="url(#paint5_linear_48_1375)"/>
<path fill-rule="evenodd" clip-rule="evenodd" d="M50.5993 58.9759C40.8544 58.4645 36.2422 53.4573 34.5366 46.4144C39.9974 49.934 47.0958 53.3272 47.0958 53.3272C47.0958 53.3272 47.785 56.473 50.5993 58.9759Z" fill="url(#paint6_linear_48_1375)"/>
<path fill-rule="evenodd" clip-rule="evenodd" d="M48.635 52.3352C43.6741 41.4799 57.4817 38.4096 62.8428 33.4721C65.2068 48.0431 49.6615 47.9388 48.635 52.3352Z" fill="url(#paint7_linear_48_1375)"/>
<path fill-rule="evenodd" clip-rule="evenodd" d="M46.47 51.3086C33.194 44.8872 29.4746 40.6664 32.2204 28.8466C35.1399 36.0944 43.5069 39.1279 45.6328 47.0214C45.9637 48.2608 46.2536 49.9703 46.47 51.3086Z" fill="url(#paint8_linear_48_1375)"/>
<path fill-rule="evenodd" clip-rule="evenodd" d="M37.1492 31.4142C34.2127 28.3122 32.0945 24.4397 33.705 19.9482C39.2848 4.38019 65.3731 7.9661 65.5895 22.9092C65.6589 27.7082 62.4118 30.5223 59.2718 32.8167C64.5819 24.2946 57.3668 17.1198 48.9346 16.9058C41.6589 16.7214 34.2692 22.1445 37.1492 31.4142Z" fill="url(#paint9_linear_48_1375)"/>
<path fill-rule="evenodd" clip-rule="evenodd" d="M54.3325 66.1549C57.1279 68.8664 62.4127 69.2823 65.743 69.3875C60.6888 67.0935 57.8934 65.2509 57.8934 65.2509C57.8934 65.2509 56.5195 66.3601 54.3325 66.1549Z" fill="url(#paint10_linear_48_1375)"/>
<path fill-rule="evenodd" clip-rule="evenodd" d="M56.6298 34.2422C57.9696 29.4098 55.3984 24.9599 49.7272 24.1098C44.033 23.2567 38.8639 26.629 38.9788 32.7821C35.9155 25.3775 42.0058 18.7839 50.0594 19.5039C57.8171 20.1977 61.3008 28.6798 56.6298 34.2422Z" fill="url(#paint11_linear_48_1375)"/>
<path d="M40.4656 34.5859C41.4337 31.2816 44.8917 30.1185 47.7464 30.3137C51.0776 30.5365 54.0264 33.0949 54.0315 35.6659C56.4152 31.1001 53.0689 26.8025 48.4356 26.5247C43.8708 26.2506 39.5246 29.5883 40.4656 34.5859Z" fill="url(#paint12_linear_48_1375)"/>
<path d="M40.4739 34.6181C40.471 34.6065 40.469 34.5945 40.4661 34.5859C40.4622 34.5975 40.4603 34.6095 40.4573 34.6211C40.4607 34.6181 40.4661 34.6155 40.4739 34.6181Z" fill="#E5352B"/>
<path d="M51.6611 37.8768C51.4378 38.8551 50.495 39.6961 49.2365 40.9246C47.4836 42.6337 46.7553 44.201 46.7553 44.201C46.7553 44.201 46.1865 42.2408 44.5903 40.2305C43.7343 39.15 42.3338 37.9974 42.6541 36.1602C43.0157 34.0853 45.5295 32.8205 48.0225 33.296C50.5055 33.7687 52.1385 35.8211 51.6611 37.8768Z" fill="url(#paint13_linear_48_1375)"/>
<path d="M146.814 76.8371C146.814 75.9356 146.775 75.2289 146.736 74.5214H148.235L148.313 75.9181H148.371C148.897 75.105 149.773 74.345 151.35 74.345C152.616 74.345 153.589 75.0521 153.998 76.0595H154.037C154.329 75.5643 154.718 75.211 155.108 74.9457C155.672 74.5569 156.276 74.345 157.171 74.345C158.437 74.345 160.287 75.0871 160.287 78.0569V83.077H158.612V78.2513C158.612 76.5901 157.931 75.6177 156.568 75.6177C155.575 75.6177 154.835 76.2718 154.523 77.0144C154.446 77.2442 154.387 77.5095 154.387 77.792V83.0774H152.713V77.9513C152.713 76.5901 152.051 75.6177 150.746 75.6177C149.695 75.6177 148.897 76.3953 148.624 77.1733C148.527 77.3852 148.488 77.6681 148.488 77.933V83.077H146.813V76.8371H146.814Z" fill="#646F84"/>
<path d="M171.112 83.077V77.986L169.788 79.0113V77.7916L171.112 76.7666V70.5267H172.825V75.5644L174.208 74.486V75.7233L172.825 76.8017V83.077H171.112Z" fill="#646F84"/>
<path d="M192.256 78.7289C192.256 81.8931 189.822 83.2718 187.563 83.2718C185.032 83.2718 183.046 81.5752 183.046 78.8703C183.046 76.0245 185.13 74.345 187.719 74.345C190.425 74.345 192.256 76.13 192.256 78.7289ZM184.798 78.8173C184.798 80.6908 185.966 82.1054 187.641 82.1054C189.277 82.1054 190.503 80.7087 190.503 78.7819C190.503 77.3323 189.705 75.5118 187.68 75.5118C185.675 75.5118 184.798 77.2084 184.798 78.8173Z" fill="#646F84"/>
<path d="M210.518 70.5267V80.8673C210.518 81.6273 210.557 82.4934 210.596 83.077H209.077L208.999 81.5919H208.941C208.435 82.5463 207.305 83.271 205.767 83.271C203.489 83.271 201.718 81.5214 201.718 78.9225C201.698 76.0766 203.665 74.3441 205.943 74.3441C207.403 74.3441 208.357 74.9628 208.786 75.6348H208.824V70.5263L210.518 70.5267ZM208.824 78.0039C208.824 77.8095 208.804 77.5442 208.746 77.3498C208.493 76.3778 207.558 75.5648 206.273 75.5648C204.502 75.5648 203.45 76.9789 203.45 78.8528C203.45 80.5849 204.404 82.017 206.234 82.017C207.383 82.017 208.434 81.3099 208.746 80.161C208.804 79.9487 208.824 79.7364 208.824 79.4894V78.0039Z" fill="#646F84"/>
<path d="M221.985 74.5219L224.029 79.5774C224.263 80.1427 224.497 80.8147 224.652 81.327H224.691C224.867 80.8143 225.061 80.1606 225.294 79.5419L227.164 74.5219H228.974L226.404 80.6203C225.177 83.5546 224.34 85.0393 223.172 85.9762C222.316 86.6303 221.497 86.8952 221.07 86.9661L220.641 85.6755C221.07 85.552 221.634 85.3042 222.14 84.9158C222.608 84.5796 223.172 83.9789 223.581 83.1833C223.659 83.0244 223.717 82.9005 223.717 82.8121C223.717 82.7236 223.678 82.5997 223.581 82.4053L220.116 74.5219H221.985Z" fill="#646F84"/>
<path d="M146.773 89.9359H149.934V95.598H149.976C150.29 95.1037 150.624 94.6482 150.959 94.1922L154.141 89.9359H158.075L153.408 95.389L158.305 102.742H154.601L151.127 97.2133L149.934 98.5619V102.742H146.773V89.9359Z" fill="#646F84"/>
<path d="M159.624 90.107C160.65 89.9551 162.157 89.8408 163.873 89.8408C165.966 89.8408 167.43 90.1262 168.435 90.8478C169.293 91.4556 169.753 92.368 169.753 93.546C169.753 95.1609 168.477 96.2822 167.263 96.6814V96.7386C168.247 97.0994 168.791 97.9354 169.147 99.1134C169.586 100.576 170.005 102.248 170.277 102.742H167.012C166.803 102.362 166.448 101.336 166.05 99.7592C165.652 98.1444 165.045 97.7264 163.727 97.7072H162.785V102.742H159.624V90.107ZM162.785 95.6172H164.04C165.631 95.6172 166.573 94.8951 166.573 93.7742C166.573 92.6154 165.694 92.0071 164.228 92.0071C163.454 92.0071 163.014 92.0451 162.784 92.1022L162.785 95.6172Z" fill="#646F84"/>
<path d="M175.509 99.4551L174.504 102.742H171.219L175.509 89.9359H179.695L184.089 102.742H180.636L179.548 99.4551H175.509ZM179.088 97.2892L178.209 94.5722C177.958 93.8122 177.707 92.8619 177.498 92.1018H177.456C177.247 92.8619 177.037 93.8314 176.807 94.5722L175.97 97.2892H179.088Z" fill="#646F84"/>
<path d="M185.953 89.9359H189.114V95.598H189.156C189.47 95.1037 189.804 94.6482 190.139 94.1922L193.321 89.9359H197.255L192.588 95.389L197.485 102.742H193.781L190.307 97.2133L189.114 98.5619V102.742H185.953V89.9359Z" fill="#646F84"/>
<path d="M211.026 96.2062C211.026 100.424 208.242 102.951 204.099 102.951C199.935 102.951 197.465 100.082 197.465 96.4152C197.465 92.5769 200.186 89.7081 204.33 89.7081C208.661 89.7081 211.026 92.6529 211.026 96.2062ZM200.835 96.3581C200.835 98.8852 202.132 100.652 204.267 100.652C206.422 100.652 207.657 98.7901 207.657 96.3009C207.657 93.9828 206.464 92.0067 204.267 92.0067C202.09 92.0071 200.835 93.8693 200.835 96.3581ZM207.887 86.8961L205.334 89.2334H202.78L204.538 86.8961H207.887Z" fill="#646F84"/>
<path d="M215.255 102.742L211.907 89.9359H215.318L216.386 95.1992C216.699 96.7381 216.992 98.3909 217.222 99.6833H217.265C217.495 98.2962 217.829 96.7569 218.185 95.1608L219.378 89.9359H222.769L223.899 95.3323C224.213 96.8336 224.443 98.2015 224.652 99.6265H224.694C224.903 98.2015 225.218 96.7002 225.51 95.1613L226.661 89.9363H229.906L226.264 102.743H222.81L221.618 97.2325C221.346 95.9405 221.115 94.7433 220.948 93.2803H220.906C220.655 94.7245 220.424 95.9405 220.09 97.2325L218.751 102.743H215.255V102.742Z" fill="#646F84"/>
<path d="M146.518 122.935V121.709L148.245 120.187C152.399 116.597 154.301 114.689 154.301 112.463C154.301 110.963 153.525 109.577 151.098 109.577C149.621 109.577 148.395 110.259 147.645 110.827L146.944 109.418C148.045 108.578 149.672 107.919 151.523 107.919C155.026 107.919 156.503 110.1 156.503 112.213C156.503 114.939 154.326 117.142 150.898 120.141L149.622 121.232V121.277H156.903V122.935H146.518Z" fill="#646F84"/>
<path d="M162.031 121.754C162.031 120.936 162.656 120.323 163.533 120.323C164.409 120.323 165.009 120.913 165.009 121.754C165.009 122.572 164.408 123.185 163.483 123.185C162.632 123.185 162.031 122.572 162.031 121.754Z" fill="#646F84"/>
<path d="M180.372 115.393C180.372 120.414 178.295 123.185 174.717 123.185C171.539 123.185 169.362 120.482 169.312 115.598C169.312 110.622 171.689 107.919 174.991 107.919C178.395 107.919 180.372 110.69 180.372 115.393ZM171.539 115.62C171.539 119.46 172.841 121.64 174.842 121.64C177.069 121.64 178.145 119.255 178.145 115.484C178.145 111.849 177.144 109.464 174.842 109.464C172.941 109.464 171.539 111.599 171.539 115.62Z" fill="#646F84"/>
<path d="M136.091 74.7083H134.734V122.965H136.091V74.7083Z" fill="#646F84"/>
<rect x="125" y="26" width="158" height="115" fill="#391F96"/>
</g>
<path d="M152.534 77V66.0909H154.153V67.7955H154.295C154.523 67.2131 154.89 66.7609 155.396 66.4389C155.903 66.1122 156.511 65.9489 157.222 65.9489C157.941 65.9489 158.54 66.1122 159.018 66.4389C159.501 66.7609 159.878 67.2131 160.148 67.7955H160.261C160.541 67.232 160.96 66.7846 161.518 66.4531C162.077 66.117 162.747 65.9489 163.528 65.9489C164.504 65.9489 165.302 66.2543 165.922 66.8651C166.542 67.4711 166.852 68.4157 166.852 69.6989V77H165.176V69.6989C165.176 68.8939 164.956 68.3187 164.516 67.973C164.075 67.6274 163.557 67.4545 162.96 67.4545C162.193 67.4545 161.599 67.6866 161.178 68.1506C160.756 68.6098 160.545 69.1922 160.545 69.8977V77H158.841V69.5284C158.841 68.9081 158.64 68.4086 158.237 68.0298C157.835 67.6463 157.316 67.4545 156.682 67.4545C156.246 67.4545 155.839 67.5705 155.46 67.8026C155.086 68.0346 154.783 68.3565 154.551 68.7685C154.324 69.1757 154.21 69.6468 154.21 70.1818V77H152.534ZM177.156 67.9091V69.1591L172.354 70.9773V69.7273L177.156 67.9091ZM175.593 62.4545V77H173.917V62.4545H175.593ZM187.095 77.2273C186.11 77.2273 185.246 76.9929 184.502 76.5241C183.764 76.0554 183.186 75.3996 182.77 74.5568C182.358 73.714 182.152 72.7292 182.152 71.6023C182.152 70.4659 182.358 69.474 182.77 68.6264C183.186 67.7789 183.764 67.1207 184.502 66.652C185.246 66.1832 186.11 65.9489 187.095 65.9489C188.08 65.9489 188.941 66.1832 189.68 66.652C190.423 67.1207 191.001 67.7789 191.413 68.6264C191.83 69.474 192.038 70.4659 192.038 71.6023C192.038 72.7292 191.83 73.714 191.413 74.5568C191.001 75.3996 190.423 76.0554 189.68 76.5241C188.941 76.9929 188.08 77.2273 187.095 77.2273ZM187.095 75.7216C187.843 75.7216 188.458 75.5298 188.941 75.1463C189.424 74.7628 189.782 74.2585 190.014 73.6335C190.246 73.0085 190.362 72.3314 190.362 71.6023C190.362 70.8731 190.246 70.1937 190.014 69.5639C189.782 68.9342 189.424 68.4252 188.941 68.0369C188.458 67.6487 187.843 67.4545 187.095 67.4545C186.347 67.4545 185.731 67.6487 185.248 68.0369C184.765 68.4252 184.408 68.9342 184.176 69.5639C183.944 70.1937 183.828 70.8731 183.828 71.6023C183.828 72.3314 183.944 73.0085 184.176 73.6335C184.408 74.2585 184.765 74.7628 185.248 75.1463C185.731 75.5298 186.347 75.7216 187.095 75.7216ZM202.716 77.2273C201.807 77.2273 201.004 76.9976 200.308 76.5384C199.612 76.0743 199.068 75.4209 198.675 74.5781C198.282 73.7306 198.085 72.7292 198.085 71.5739C198.085 70.428 198.282 69.4337 198.675 68.5909C199.068 67.7481 199.615 67.0971 200.315 66.6378C201.016 66.1785 201.826 65.9489 202.744 65.9489C203.455 65.9489 204.016 66.0672 204.428 66.304C204.844 66.536 205.161 66.8011 205.379 67.0994C205.602 67.393 205.775 67.6345 205.898 67.8239H206.04V62.4545H207.716V77H206.097V75.3239H205.898C205.775 75.5227 205.599 75.7737 205.372 76.0767C205.145 76.375 204.821 76.6425 204.399 76.8793C203.978 77.1113 203.417 77.2273 202.716 77.2273ZM202.943 75.7216C203.616 75.7216 204.184 75.5464 204.648 75.196C205.112 74.8409 205.464 74.3509 205.706 73.7259C205.947 73.0961 206.068 72.3693 206.068 71.5455C206.068 70.7311 205.95 70.0185 205.713 69.4077C205.476 68.7921 205.126 68.3139 204.662 67.973C204.198 67.6274 203.625 67.4545 202.943 67.4545C202.233 67.4545 201.641 67.6368 201.168 68.0014C200.699 68.3613 200.346 68.8513 200.109 69.4716C199.877 70.0871 199.761 70.7784 199.761 71.5455C199.761 72.322 199.88 73.0275 200.116 73.6619C200.358 74.2917 200.713 74.7936 201.182 75.1676C201.655 75.5369 202.242 75.7216 202.943 75.7216ZM216.098 81.0909C215.814 81.0909 215.561 81.0672 215.338 81.0199C215.116 80.9773 214.962 80.9347 214.876 80.892L215.303 79.4148C215.71 79.5189 216.07 79.5568 216.382 79.5284C216.695 79.5 216.972 79.3603 217.213 79.1094C217.459 78.8632 217.684 78.4631 217.888 77.9091L218.2 77.0568L214.166 66.0909H215.984L218.996 74.7841H219.109L222.121 66.0909H223.939L219.308 78.5909C219.1 79.1544 218.842 79.6207 218.534 79.9901C218.226 80.3641 217.869 80.6411 217.462 80.821C217.059 81.0009 216.605 81.0909 216.098 81.0909ZM152.011 96V84.3636H154.472V89.4943H154.625L158.812 84.3636H161.761L157.443 89.5739L161.812 96H158.869L155.682 91.2159L154.472 92.6932V96H152.011ZM163.043 96V84.3636H167.634C168.512 84.3636 169.262 84.5208 169.884 84.8352C170.509 85.1458 170.984 85.5871 171.31 86.1591C171.639 86.7273 171.804 87.3958 171.804 88.1648C171.804 88.9375 171.637 89.6023 171.304 90.1591C170.971 90.7121 170.488 91.1364 169.855 91.4318C169.226 91.7273 168.465 91.875 167.571 91.875H164.497V89.8977H167.173C167.643 89.8977 168.033 89.8333 168.344 89.7045C168.654 89.5758 168.885 89.3826 169.037 89.125C169.192 88.8674 169.27 88.5473 169.27 88.1648C169.27 87.7784 169.192 87.4527 169.037 87.1875C168.885 86.9223 168.652 86.7216 168.338 86.5852C168.027 86.4451 167.635 86.375 167.162 86.375H165.503V96H163.043ZM169.327 90.7045L172.219 96H169.503L166.673 90.7045H169.327ZM175.548 96H172.912L176.929 84.3636H180.099L184.111 96H181.474L178.56 87.0227H178.469L175.548 96ZM175.384 91.4261H181.611V93.3466H175.384V91.4261ZM185.511 96V84.3636H187.972V89.4943H188.125L192.312 84.3636H195.261L190.943 89.5739L195.312 96H192.369L189.182 91.2159L187.972 92.6932V96H185.511ZM206.58 90.1818C206.58 91.4508 206.339 92.5303 205.858 93.4205C205.381 94.3106 204.729 94.9905 203.903 95.4602C203.081 95.9261 202.157 96.1591 201.131 96.1591C200.097 96.1591 199.169 95.9242 198.347 95.4545C197.525 94.9848 196.875 94.3049 196.398 93.4148C195.92 92.5246 195.682 91.447 195.682 90.1818C195.682 88.9129 195.92 87.8333 196.398 86.9432C196.875 86.053 197.525 85.375 198.347 84.9091C199.169 84.4394 200.097 84.2045 201.131 84.2045C202.157 84.2045 203.081 84.4394 203.903 84.9091C204.729 85.375 205.381 86.053 205.858 86.9432C206.339 87.8333 206.58 88.9129 206.58 90.1818ZM204.085 90.1818C204.085 89.3598 203.962 88.6667 203.716 88.1023C203.473 87.5379 203.131 87.1098 202.688 86.8182C202.244 86.5265 201.725 86.3807 201.131 86.3807C200.536 86.3807 200.017 86.5265 199.574 86.8182C199.131 87.1098 198.786 87.5379 198.54 88.1023C198.297 88.6667 198.176 89.3598 198.176 90.1818C198.176 91.0038 198.297 91.697 198.54 92.2614C198.786 92.8258 199.131 93.2538 199.574 93.5455C200.017 93.8371 200.536 93.983 201.131 93.983C201.725 93.983 202.244 93.8371 202.688 93.5455C203.131 93.2538 203.473 92.8258 203.716 92.2614C203.962 91.697 204.085 91.0038 204.085 90.1818ZM200.261 83.2386L201.466 80.6534H203.705L201.972 83.2386H200.261ZM210.584 96L207.254 84.3636H209.942L211.868 92.4489H211.964L214.089 84.3636H216.391L218.51 92.4659H218.612L220.538 84.3636H223.226L219.896 96H217.499L215.283 88.392H215.192L212.982 96H210.584ZM152.506 120V118.722L157.307 113.466C157.87 112.85 158.334 112.315 158.699 111.861C159.063 111.402 159.333 110.971 159.509 110.568C159.688 110.161 159.778 109.735 159.778 109.29C159.778 108.778 159.655 108.336 159.409 107.962C159.168 107.588 158.836 107.299 158.415 107.095C157.993 106.892 157.52 106.79 156.994 106.79C156.436 106.79 155.948 106.906 155.531 107.138C155.119 107.365 154.8 107.685 154.572 108.097C154.35 108.509 154.239 108.991 154.239 109.545H152.562C152.562 108.693 152.759 107.945 153.152 107.301C153.545 106.657 154.08 106.155 154.757 105.795C155.439 105.436 156.204 105.256 157.051 105.256C157.903 105.256 158.659 105.436 159.317 105.795C159.975 106.155 160.491 106.641 160.865 107.251C161.239 107.862 161.426 108.542 161.426 109.29C161.426 109.825 161.329 110.348 161.135 110.859C160.946 111.366 160.614 111.932 160.141 112.557C159.672 113.177 159.021 113.935 158.188 114.83L154.92 118.324V118.438H161.682V120H152.506ZM165.865 120.114C165.515 120.114 165.214 119.988 164.963 119.737C164.712 119.486 164.587 119.186 164.587 118.835C164.587 118.485 164.712 118.184 164.963 117.933C165.214 117.682 165.515 117.557 165.865 117.557C166.215 117.557 166.516 117.682 166.767 117.933C167.018 118.184 167.143 118.485 167.143 118.835C167.143 119.067 167.084 119.28 166.966 119.474C166.852 119.669 166.698 119.825 166.504 119.943C166.315 120.057 166.102 120.114 165.865 120.114ZM174.359 120.199C173.289 120.199 172.378 119.908 171.625 119.325C170.872 118.738 170.297 117.888 169.899 116.776C169.501 115.658 169.303 114.309 169.303 112.727C169.303 111.155 169.501 109.813 169.899 108.7C170.302 107.583 170.879 106.731 171.632 106.143C172.39 105.552 173.299 105.256 174.359 105.256C175.42 105.256 176.327 105.552 177.08 106.143C177.837 106.731 178.415 107.583 178.812 108.7C179.215 109.813 179.416 111.155 179.416 112.727C179.416 114.309 179.217 115.658 178.82 116.776C178.422 117.888 177.847 118.738 177.094 119.325C176.341 119.908 175.429 120.199 174.359 120.199ZM174.359 118.636C175.42 118.636 176.244 118.125 176.831 117.102C177.418 116.08 177.712 114.621 177.712 112.727C177.712 111.468 177.577 110.395 177.307 109.51C177.042 108.625 176.658 107.95 176.156 107.486C175.659 107.022 175.06 106.79 174.359 106.79C173.308 106.79 172.487 107.308 171.895 108.345C171.303 109.377 171.007 110.838 171.007 112.727C171.007 113.987 171.14 115.057 171.405 115.938C171.67 116.818 172.051 117.488 172.548 117.947C173.05 118.407 173.654 118.636 174.359 118.636Z" fill="white"/>
<line x1="135.5" y1="68" x2="135.5" y2="122" stroke="white"/>
<defs>
<linearGradient id="paint0_linear_48_1375" x1="44.8864" y1="74.0952" x2="44.8864" y2="122.711" gradientUnits="userSpaceOnUse">
<stop stop-color="#39A8E0"/>
<stop offset="1" stop-color="#302D7E"/>
</linearGradient>
<linearGradient id="paint1_linear_48_1375" x1="86.3629" y1="40.8422" x2="86.3629" y2="116.823" gradientUnits="userSpaceOnUse">
<stop stop-color="#EA5174"/>
<stop offset="1" stop-color="#9D1544"/>
</linearGradient>
<linearGradient id="paint2_linear_48_1375" x1="61.6625" y1="63.3323" x2="72.0528" y2="65.7341" gradientUnits="userSpaceOnUse">
<stop stop-color="#94C123"/>
<stop offset="1" stop-color="#448132"/>
</linearGradient>
<linearGradient id="paint3_linear_48_1375" x1="42.4065" y1="60.8492" x2="56.7391" y2="64.1623" gradientUnits="userSpaceOnUse">
<stop stop-color="#94C123"/>
<stop offset="1" stop-color="#448132"/>
</linearGradient>
<linearGradient id="paint4_linear_48_1375" x1="55.467" y1="58.0308" x2="63.1988" y2="59.8181" gradientUnits="userSpaceOnUse">
<stop stop-color="#94C123"/>
<stop offset="1" stop-color="#448132"/>
</linearGradient>
<linearGradient id="paint5_linear_48_1375" x1="50.153" y1="51.2817" x2="61.3249" y2="53.8641" gradientUnits="userSpaceOnUse">
<stop stop-color="#94C123"/>
<stop offset="1" stop-color="#448132"/>
</linearGradient>
<linearGradient id="paint6_linear_48_1375" x1="33.4566" y1="51.0857" x2="51.4612" y2="55.2476" gradientUnits="userSpaceOnUse">
<stop stop-color="#94C123"/>
<stop offset="1" stop-color="#448132"/>
</linearGradient>
<linearGradient id="paint7_linear_48_1375" x1="48.8595" y1="41.5926" x2="61.5548" y2="44.5272" gradientUnits="userSpaceOnUse">
<stop stop-color="#94C123"/>
<stop offset="1" stop-color="#448132"/>
</linearGradient>
<linearGradient id="paint8_linear_48_1375" x1="30.0342" y1="38.3036" x2="48.4897" y2="42.5697" gradientUnits="userSpaceOnUse">
<stop stop-color="#94C123"/>
<stop offset="1" stop-color="#448132"/>
</linearGradient>
<linearGradient id="paint9_linear_48_1375" x1="33.9287" y1="18.6744" x2="65.1906" y2="25.9008" gradientUnits="userSpaceOnUse">
<stop stop-color="#EA5174"/>
<stop offset="1" stop-color="#9D1544"/>
</linearGradient>
<linearGradient id="paint10_linear_48_1375" x1="54.3356" y1="66.1401" x2="65.8766" y2="68.8079" gradientUnits="userSpaceOnUse">
<stop stop-color="#94C123"/>
<stop offset="1" stop-color="#448132"/>
</linearGradient>
<linearGradient id="paint11_linear_48_1375" x1="38.8317" y1="25.0318" x2="58.7196" y2="29.629" gradientUnits="userSpaceOnUse">
<stop stop-color="#39A8E0"/>
<stop offset="1" stop-color="#302D7E"/>
</linearGradient>
<linearGradient id="paint12_linear_48_1375" x1="40.9451" y1="29.8544" x2="54.8734" y2="33.074" gradientUnits="userSpaceOnUse">
<stop stop-color="#FFDE08"/>
<stop offset="1" stop-color="#D25421"/>
</linearGradient>
<linearGradient id="paint13_linear_48_1375" x1="42.607" y1="38.6989" x2="51.7439" y2="38.6989" gradientUnits="userSpaceOnUse">
<stop stop-color="#39A8E0"/>
<stop offset="1" stop-color="#302D7E"/>
</linearGradient>
<clipPath id="clip0_48_1375">
<rect width="251" height="141" fill="white"/>
</clipPath>
</defs>
</svg>
